# xmcd
#
# Track frame offsets: 
#        150
#        26619
#        50010
#        71845
#        105302
#        127655
#        155827
#        178445
#        200157
#        224067
#
# Disc length: 3322 seconds
#
# Revision: 0
# Processed by: cddbd v1.5.2PL0 Copyright (c) Steve Scherf et al.
# Submitted via: ExactAudioCopy v1.0b3
#
DISCID=9d0cf80a
DTITLE=Tuan Vu, Son Tuyen - Tren 4 Vung Chien Thuat
DYEAR=1995
DGENRE=
TTITLE0=Tuan Vu - Vong gac dem suong
TTITLE1=Anh tien tuyen em hau phuong
TTITLE2=Tuan Vu - Biet kinh ky
TTITLE3=Son Tuyen - Dau chan ky niem
TTITLE4=Tuan Vu - Nua dem bien gioi
TTITLE5=Son Tuyen - Doi thong hai mo
TTITLE6=Gap nhau lam ngo
TTITLE7=Tuan Vu - Thiep hong anh viet ten em
TTITLE8=Son Tuyen - Giot le dai trang
TTITLE9=Tuan Vu - Tren bon vung chien thuat
EXTD=
EXTT0=
EXTT1=
EXTT2=
EXTT3=
EXTT4=
EXTT5=
EXTT6=
EXTT7=
EXTT8=
EXTT9=
PLAYORDER=
